<svg xmlns="http://www.w3.org/2000/svg" width="64" height="64" enable-background="new 0 0 64 64" viewBox="0 0 64 64"><polygon fill="#E29F33" points="37 46.82 27 55 25 43"/><polygon fill="#F6BB42" points="32.15 30 16 41 1 36"/><polygon fill="#FFCE54" points="63 9 32.15 30 1 36"/><polygon fill="#EDAB37" points="63 9 37.62 31.71 25 43 27 55 16 41 32.15 30"/><polygon fill="#F6BB42" points="37.62 31.71 47 50 37 46.82 25 43"/><polygon fill="#FFCE54" points="63 9 47 50 37.62 31.71"/><path d="M27,56c-0.3,0-0.592-0.135-0.786-0.382L15.399,41.854L0.684,36.948c-0.393-0.131-0.664-0.49-0.683-0.903
			c-0.019-0.414,0.22-0.797,0.6-0.962l62-27C62.972,7.924,63.401,8,63.693,8.279c0.291,0.28,0.385,0.708,0.238,1.084l-16,41
			c-0.192,0.492-0.733,0.75-1.234,0.59l-20.442-6.504l1.699,10.193c0.043,0.111,0.065,0.231,0.065,0.357c0,0.553-0.447,1-1,1
			C27.013,55.999,27.007,56,27,56z M3.79,35.876l12.526,4.176c0.186,0.062,0.349,0.177,0.47,0.33l8.585,10.926l-1.357-8.144
			c-0.058-0.343,0.068-0.691,0.331-0.92c0.264-0.228,0.628-0.301,0.958-0.197l21.106,6.716l14.785-37.886L3.79,35.876z"/><path d="M25,44c-0.274,0-0.548-0.112-0.745-0.333c-0.368-0.412-0.333-1.044,0.078-1.412l38-34
			c0.412-0.368,1.044-0.334,1.412,0.078s0.333,1.044-0.078,1.412l-38,34C25.476,43.916,25.237,44,25,44z"/><path d="M16.001 42c-.32 0-.634-.153-.827-.438-.312-.456-.193-1.078.264-1.389l47-32c.456-.314 1.078-.192 1.389.264.312.456.193 1.078-.264 1.389l-47 32C16.391 41.944 16.194 42 16.001 42zM27.001 56c-.29 0-.577-.125-.775-.367-.35-.427-.286-1.057.142-1.407l10-8.182c.427-.35 1.057-.286 1.407.142.35.427.286 1.057-.142 1.407l-10 8.182C27.447 55.926 27.224 56 27.001 56zM47.001 51c-.363 0-.714-.198-.891-.544l-9.383-18.289c-.252-.491-.059-1.094.434-1.346.49-.254 1.094-.059 1.346.434l9.383 18.289c.252.491.059 1.094-.434 1.346C47.311 50.965 47.154 51 47.001 51z"/><path d="M0.999,37c-0.47,0-0.889-0.332-0.981-0.811c-0.104-0.543,0.251-1.067,0.793-1.172l31.156-6
			c0.545-0.101,1.066,0.25,1.172,0.793c0.104,0.543-0.251,1.067-0.793,1.172l-31.156,6C1.125,36.994,1.062,37,0.999,37z"/></svg>